<?xml version="1.0" encoding="UTF-8" standalone="no"?>
<svg width="16px" height="16px" viewBox="0 0 16 16" version="1.1" xmlns="http://www.w3.org/2000/svg" xmlns:xlink="http://www.w3.org/1999/xlink" xmlns:sketch="http://www.bohemiancoding.com/sketch/ns">
    <!-- Generator: Sketch 3.0.1 (7597) - http://www.bohemiancoding.com/sketch -->
    <title>wr-icon-newbie-av</title>
    <description>Created with Sketch.</description>
    <defs>
        <rect id="path-1" x="0" y="0" width="16" height="16"></rect>
        <rect id="path-3" x="0" y="0" width="10" height="8"></rect>
        <radialGradient cx="50%" cy="0%" fx="50%" fy="0%" r="87.4900351%" id="radialGradient-5">
            <stop stop-color="#4095C5" offset="0%"></stop>
            <stop stop-color="#4095C5" stop-opacity="0" offset="100%"></stop>
        </radialGradient>
        <path id="path-6" d="M4,9.5 C6.34033203,9.5 8,7.262 8,4.5 C8,3.81766334 8,3.16730689 7.93969059,2.57477324 C7.75587624,0.768816466 7.01182236,0 4,0 C0.972604845,0 0.236490046,0.781971359 0.0575028412,2.60282962 C-1.57456756e-11,3.1878129 -1.5745627e-11,3.82841635 -1.5745627e-11,4.5 C-1.5745627e-11,7.262 1.65966797,9.5 4,9.5 Z"></path>
    </defs>
    <g id="Page-1" stroke="none" stroke-width="1" fill="none" fill-rule="evenodd" sketch:type="MSPage">
        <g id="People---Avatars" sketch:type="MSLayerGroup" transform="translate(-64.000000, 0.000000)">
            <g id="Newbie-Avatar" transform="translate(64.000000, 0.000000)">
                <mask id="mask-2" sketch:name="Mask" fill="white">
                    <use xlink:href="#path-1"></use>
                </mask>
                <g id="Mask"></g>
                <g id="Newbie" mask="url(#mask-2)">
                    <g transform="translate(0.000000, 1.000000)">
                        <path d="M16,12.248532 L16,15.0024554 C16,15.5536886 15.5518945,16 14.9991283,16 L1.00087166,16 C0.444630861,16 -6.43929354e-15,15.553384 -6.43929354e-15,15.0024554 L-2.27373675e-13,12.248532 C0.800687443,11.2159456 2.03798241,10.3582213 3.54905437,9.78391263 C4.61616051,11.1478536 6.16923848,13 8,13 C9.83076152,13 11.3838395,11.1478536 12.4509456,9.78391263 C13.9620176,10.3582213 15.1993126,11.2159456 16,12.248532 Z" id="Shirt" fill="#E8F3FA" sketch:type="MSShapeGroup"></path>
                        <g id="Face" stroke-width="1" fill="none" sketch:type="MSLayerGroup" transform="translate(3.000000, 4.000000)">
                            <mask id="mask-4" sketch:name="Mask" fill="white">
                                <use xlink:href="#path-3"></use>
                            </mask>
                            <use id="Mask" sketch:type="MSShapeGroup" xlink:href="#path-3"></use>
                            <g id="Person-Face" mask="url(#mask-4)" sketch:type="MSShapeGroup">
                                <g transform="translate(1.000000, -3.000000)">
                                    <path d="M4,10 C6.34033203,10 8,7.762 8,5 C8,2.238 8,0 4,0 C0,0 0,2.238 0,5 C0,7.762 1.65966797,10 4,10 Z" id="Outer-Frame" fill-opacity="0.65" fill="#D9D9D9"></path>
                                    <path d="M4,1 C6.66961542,1 7,1.59783089 7,5 C7,7.31386274 5.68154504,9 4,9 C2.31845496,9 1,7.31386274 1,5 C1,1.59783089 1.33038458,1 4,1 Z" id="Inner-Fill" fill="#FCFCFC"></path>
                                </g>
                            </g>
                            <path d="M5,7 C7.34033203,7 9,4.762 9,2 C9,-0.762 9,-3 5,-3 C1,-3 1,-0.762 1,2 C1,4.762 2.65966797,7 5,7 Z M5,-2 C7.66961542,-2 8,-1.40216911 8,2 C8,4.31386274 6.68154504,6 5,6 C3.31845496,6 2,4.31386274 2,2 C2,-1.40216911 2.33038458,-2 5,-2 Z" id="Face-Glow" fill="url(#radialGradient-5)" sketch:type="MSShapeGroup" mask="url(#mask-4)"></path>
                        </g>
                        <g id="Beanie" stroke-width="1" fill="none" sketch:type="MSLayerGroup" transform="translate(4.000000, 0.000000)">
                            <g id="Hat" transform="translate(0.000000, 1.500000)">
                                <mask id="mask-7" sketch:name="Mask" fill="white">
                                    <use xlink:href="#path-6"></use>
                                </mask>
                                <use id="Mask" sketch:type="MSShapeGroup" xlink:href="#path-6"></use>
                                <path d="M4,3 C0.316180727,3 -2.82029925,2.03505489 -4,0.685522284 L-4,-0.685522284 C-3.90615323,-0.792879409 -3.79992314,-0.897802705 -3.6820193,-1 L11.6820193,-1 C11.7999231,-0.897802705 11.9061532,-0.792879409 12,-0.685522284 L12,0.685522284 C10.8202992,2.03505489 7.68381927,3 4,3 Z" stroke="#00398C" fill="#4095C5" sketch:type="MSShapeGroup" mask="url(#mask-7)"></path>
                            </g>
                            <g id="Propellor-Blades" sketch:type="MSShapeGroup">
                                <path d="M5.85714286,0 C5.06357219,0 4,0.5 4,0.5 C4,0.5 5.06357219,1 5.85714286,1 C6.65071353,1 7.71428571,0.5 7.71428571,0.5 C7.71428571,0.5 6.65071353,0 5.85714286,0 Z" id="Right-Blade" fill="#FF554F"></path>
                                <path d="M2.12470725,8.8817842e-16 C2.91827792,8.8817842e-16 3.9818501,0.5 3.9818501,0.5 C3.9818501,0.5 2.91827792,1 2.12470725,1 C1.33113658,1 0.267564391,0.5 0.267564391,0.5 C0.267564391,0.5 1.33113658,8.8817842e-16 2.12470725,8.8817842e-16 Z" id="Left-Blade" fill="#14B6BC"></path>
                            </g>
                        </g>
                    </g>
                </g>
            </g>
        </g>
    </g>
</svg>