<?xml version="1.0" encoding="UTF-8" standalone="no"?>
<svg width="16px" height="16px" viewBox="0 0 16 16" version="1.1" xmlns="http://www.w3.org/2000/svg" xmlns:xlink="http://www.w3.org/1999/xlink" xmlns:sketch="http://www.bohemiancoding.com/sketch/ns">
    <!-- Generator: Sketch 3.0.1 (7597) - http://www.bohemiancoding.com/sketch -->
    <title>wr-icon-event</title>
    <description>Created with Sketch.</description>
    <defs>
        <rect id="path-1" x="0" y="0" width="16" height="16"></rect>
        <path d="M11.1464466,11.8535534 L7,16 L4.91421356,13.9142136 L4.91421356,13.9142136 C5.27614237,13.5522847 5.5,13.0522847 5.5,12.5 C5.5,11.3954305 4.6045695,10.5 3.5,10.5 C2.94771525,10.5 2.44771525,10.7238576 2.08578644,11.0857864 L0,9 L4.14644661,4.85355339 L4.14644661,4.85355339 C4.23692881,4.94403559 4.36192881,5 4.5,5 C4.77614237,5 5,4.77614237 5,4.5 C5,4.36192881 4.94403559,4.23692881 4.85355339,4.14644661 L9,0 L11.0857864,2.08578644 C10.7238576,2.44771525 10.5,2.94771525 10.5,3.5 C10.5,4.6045695 11.3954305,5.5 12.5,5.5 C13.0522847,5.5 13.5522847,5.27614237 13.9142136,4.91421356 L13.9142136,4.91421356 L16,7 L11.8535534,11.1464466 C11.7630712,11.0559644 11.6380712,11 11.5,11 C11.2238576,11 11,11.2238576 11,11.5 C11,11.6380712 11.0559644,11.7630712 11.1464466,11.8535534 L11.1464466,11.8535534 Z M5.5,6 C5.77614237,6 6,5.77614237 6,5.5 C6,5.22385763 5.77614237,5 5.5,5 C5.22385763,5 5,5.22385763 5,5.5 C5,5.77614237 5.22385763,6 5.5,6 L5.5,6 Z M6.5,7 C6.77614237,7 7,6.77614237 7,6.5 C7,6.22385763 6.77614237,6 6.5,6 C6.22385763,6 6,6.22385763 6,6.5 C6,6.77614237 6.22385763,7 6.5,7 L6.5,7 Z M10.5,11 C10.7761424,11 11,10.7761424 11,10.5 C11,10.2238576 10.7761424,10 10.5,10 C10.2238576,10 10,10.2238576 10,10.5 C10,10.7761424 10.2238576,11 10.5,11 L10.5,11 Z M9.5,10 C9.77614237,10 10,9.77614237 10,9.5 C10,9.22385763 9.77614237,9 9.5,9 C9.22385763,9 9,9.22385763 9,9.5 C9,9.77614237 9.22385763,10 9.5,10 L9.5,10 Z M8.5,9 C8.77614237,9 9,8.77614237 9,8.5 C9,8.22385763 8.77614237,8 8.5,8 C8.22385763,8 8,8.22385763 8,8.5 C8,8.77614237 8.22385763,9 8.5,9 L8.5,9 Z M7.5,8 C7.77614237,8 8,7.77614237 8,7.5 C8,7.22385763 7.77614237,7 7.5,7 C7.22385763,7 7,7.22385763 7,7.5 C7,7.77614237 7.22385763,8 7.5,8 L7.5,8 Z" id="path-3"></path>
    </defs>
    <g id="Page-1" stroke="none" stroke-width="1" fill="none" fill-rule="evenodd" sketch:type="MSPage">
        <g id="Ideas/Resources" sketch:type="MSLayerGroup" transform="translate(-32.000000, 0.000000)">
            <g id="Events" transform="translate(32.000000, 0.000000)">
                <mask id="mask-2" sketch:name="Mask" fill="white">
                    <use xlink:href="#path-1"></use>
                </mask>
                <g id="Mask"></g>
                <g id="Ticket" mask="url(#mask-2)">
                    <mask id="mask-4" sketch:name="Ticket" fill="white">
                        <use xlink:href="#path-3"></use>
                    </mask>
                    <use fill="#FF769F" sketch:type="MSShapeGroup" xlink:href="#path-3"></use>
                    <path d="M11.8897244,7.01832397 L11.1915946,7.71645381 L8.87761526,5.40247448 L8.20434465,6.0757451 L7.71130339,5.58270385 L8.87140046,4 L11.8897244,7.01832397 L11.8897244,7.01832397 Z" id="Admit-1---Roboto" fill="#E0658A" sketch:type="MSShapeGroup" mask="url(#mask-4)"></path>
                    <path d="M8.98500153,1.40000153 L1.40000153,8.98800153 L6.98400153,14.5720015 L14.5700015,6.98600153 L8.98500153,1.40000153 L8.98500153,1.40000153 Z M2.81400153,8.98700153 L8.98500153,2.81600153 L13.1560015,6.98700153 L6.98500153,13.1580015 L2.81400153,8.98700153 L2.81400153,8.98700153 Z" id="Border" fill="#E0658A" sketch:type="MSShapeGroup" mask="url(#mask-4)"></path>
                </g>
            </g>
        </g>
    </g>
</svg>