<?xml version="1.0" encoding="UTF-8" standalone="no"?>
<svg width="16px" height="16px" viewBox="0 0 16 16" version="1.1" xmlns="http://www.w3.org/2000/svg" xmlns:xlink="http://www.w3.org/1999/xlink" xmlns:sketch="http://www.bohemiancoding.com/sketch/ns">
    <!-- Generator: Sketch 3.0.1 (7597) - http://www.bohemiancoding.com/sketch -->
    <title>Slice 27</title>
    <description>Created with Sketch.</description>
    <defs>
        <path id="path-1" d="M15.3933884,10 C15.3933884,4.476 15.3933884,0 7.94214876,0 C0.490909091,0 0.490909091,4.476 0.490909091,10 L15.3933884,10 L15.3933884,10 Z"></path>
    </defs>
    <g id="Page-1" stroke="none" stroke-width="1" fill="none" fill-rule="evenodd" sketch:type="MSPage">
        <g id="Slices" sketch:type="MSLayerGroup" transform="translate(-64.000000, -128.000000)"></g>
        <g id="Newbie-3" sketch:type="MSLayerGroup" transform="translate(0.000000, 2.000000)">
            <rect id="Rectangle-118" fill-opacity="0.5" fill="#00398C" sketch:type="MSShapeGroup" x="7.5" y="2.5" width="1" height="3.5" rx="1"></rect>
            <circle id="Oval-50" fill="#5CC600" sketch:type="MSShapeGroup" cx="8" cy="0.5" r="0.5"></circle>
            <g id="Oval-27" transform="translate(0.000000, 4.000000)">
                <mask id="mask-2" sketch:name="Path 4" fill="white">
                    <use xlink:href="#path-1"></use>
                </mask>
                <use id="Path-4" sketch:type="MSShapeGroup" xlink:href="#path-1"></use>
                <ellipse stroke="#00398C" stroke-width="2" fill="#4095C5" sketch:type="MSShapeGroup" mask="url(#mask-2)" cx="8.12727273" cy="-1" rx="16.0363636" ry="7"></ellipse>
            </g>
            <g id="Propellor-Blades" transform="translate(1.000000, 1.000000)" sketch:type="MSShapeGroup">
                <path d="M10.25,0 C8.86125132,0 7,1 7,1 C7,1 8.86125132,2 10.25,2 C11.6387487,2 13.5,0.5 13.5,0.5 C13.5,0.5 11.6387487,0 10.25,0 Z" id="Oval-30" fill="#FF554F"></path>
                <path d="M3.71823768,1.77635684e-15 C5.10698636,1.77635684e-15 6.96823768,1 6.96823768,1 C6.96823768,1 5.10698636,2 3.71823768,2 C2.32948901,2 0.468237683,0.5 0.468237683,0.5 C0.468237683,0.5 2.32948901,1.77635684e-15 3.71823768,1.77635684e-15 Z" id="Oval-31" fill="#14B6BC"></path>
            </g>
        </g>
    </g>
</svg>