<?xml version="1.0" encoding="UTF-8" standalone="no"?>
<svg width="16px" height="16px" viewBox="0 0 16 16" version="1.1" xmlns="http://www.w3.org/2000/svg" xmlns:xlink="http://www.w3.org/1999/xlink" xmlns:sketch="http://www.bohemiancoding.com/sketch/ns">
    <!-- Generator: Sketch 3.0.1 (7597) - http://www.bohemiancoding.com/sketch -->
    <title>wr-icon-investor</title>
    <description>Created with Sketch.</description>
    <defs>
        <rect id="path-1" x="0" y="0" width="16" height="16"></rect>
        <linearGradient x1="0%" y1="69.2047119%" x2="100%" y2="87.399292%" id="linearGradient-3">
            <stop stop-color="#FFFFFF" stop-opacity="0.5" offset="0%"></stop>
            <stop stop-color="#000000" stop-opacity="0.5" offset="100%"></stop>
        </linearGradient>
        <path d="M7.96567715,0.641097282 C7.58700185,0.215392431 6.59068138,0 5.00245097,0 L4.99754903,0 C3.40931862,0 2.41299815,0.215392431 2.03432285,0.641097282 C1.79045105,0.916433833 1.89584288,1.16535433 1.90809774,1.19278639 C1.91422518,1.20294641 1.92035261,1.21209042 1.92648004,1.22225044 L3.84926825,3.81915164 C3.87990541,3.86080772 3.93137584,3.89230378 3.99142467,3.90449581 C4.31985503,3.96850394 4.66054026,4 5,4 C5.33945974,4 5.68014497,3.96850394 6.00857533,3.90449581 C6.06862416,3.89230378 6.12009459,3.86080772 6.15073175,3.81915164 L8.07351996,1.22225044 C8.07964739,1.21209042 8.08577482,1.20294641 8.09190226,1.19278639 C8.10415712,1.16535433 8.20954895,0.916433833 7.96567715,0.641097282 M3.75,4.5 L0.223349333,11.5533013 C0.0999969024,11.8000062 0.190584244,12.1139402 0.427832316,12.2557783 L4.59017306,14.7442217 C4.82645832,14.8854841 5.20722192,14.8860598 5.44276743,14.7442217 L9.57523794,12.2557783 C9.80982755,12.1145159 9.89969656,11.7993931 9.77665067,11.5533013 C9.77665067,11.5533013 6.25000013,4.5 6.25,4.5 C5.62500013,4.69999695 4.37500013,4.69999695 3.75,4.5 Z" id="path-4"></path>
        <filter x="-50%" y="-50%" width="200%" height="200%" filterUnits="objectBoundingBox" id="filter-6">
            <feOffset dx="0" dy="0.5" in="SourceAlpha" result="shadowOffsetOuter1"></feOffset>
            <feGaussianBlur stdDeviation="0" in="shadowOffsetOuter1" result="shadowBlurOuter1"></feGaussianBlur>
            <feColorMatrix values="0 0 0 0 0.749019608   0 0 0 0 0.749019608   0 0 0 0 0.749019608  0 0 0 0.7 0" in="shadowBlurOuter1" type="matrix" result="shadowMatrixOuter1"></feColorMatrix>
            <feMerge>
                <feMergeNode in="shadowMatrixOuter1"></feMergeNode>
                <feMergeNode in="SourceGraphic"></feMergeNode>
            </feMerge>
        </filter>
        <rect id="path-7" x="6" y="9" width="3.5" height="1" rx="0.5"></rect>
    </defs>
    <g id="Page-1" stroke="none" stroke-width="1" fill="none" fill-rule="evenodd" sketch:type="MSPage">
        <g id="People" sketch:type="MSLayerGroup" transform="translate(-128.000000, 0.000000)">
            <g id="Investor" transform="translate(128.000000, 0.000000)">
                <mask id="mask-2" sketch:name="Mask" fill="white">
                    <use xlink:href="#path-1"></use>
                </mask>
                <g id="Mask"></g>
                <g id="Tie" mask="url(#mask-2)">
                    <g transform="translate(3.000000, 0.000000)">
                        <g id="Tie" stroke-width="1" fill="none" sketch:type="MSLayerGroup">
                            <mask id="mask-5" sketch:name="Tie" fill="white">
                                <use xlink:href="#path-4"></use>
                            </mask>
                            <g>
                                <use fill="#601EBD" sketch:type="MSShapeGroup" xlink:href="#path-4"></use>
                                <use fill-opacity="0.300000012" fill="url(#linearGradient-3)" xlink:href="#path-4"></use>
                            </g>
                            <g id="Pinstripes" mask="url(#mask-5)" stroke="#3000C2" stroke-width="0.5" stroke-linecap="square" sketch:type="MSShapeGroup">
                                <path d="M1.09471007,0.168831169 L1.09471007,15.7694805" id="Pinstripe"></path>
                                <path d="M2.09471007,0.168831169 L2.09471007,15.7694805" id="Pinstripe"></path>
                                <path d="M3.09471007,0.168831169 L3.09471007,15.7694805" id="Pinstripe"></path>
                                <path d="M4.09471007,0.168831169 L4.09471007,15.7694805" id="Pinstripe"></path>
                                <path d="M5.09471007,0.168831169 L5.09471007,15.7694805" id="Pinstripe"></path>
                                <path d="M6.09471007,0.168831169 L6.09471007,15.7694805" id="Pinstripe"></path>
                                <path d="M7.09471007,0.168831169 L7.09471007,15.7694805" id="Pinstripe"></path>
                                <path d="M8.09471007,0.168831169 L8.09471007,15.7694805" id="Pinstripe"></path>
                                <path d="M9.09471007,0.168831169 L9.09471007,15.7694805" id="Pinstripe"></path>
                            </g>
                        </g>
                        <g id="Tie-Clip" filter="url(#filter-6)">
                            <use fill="#F8CC00" sketch:type="MSShapeGroup" xlink:href="#path-7"></use>
                            <use fill="#D8D8D8" xlink:href="#path-7"></use>
                        </g>
                    </g>
                </g>
            </g>
        </g>
    </g>
</svg>