<?xml version="1.0" encoding="UTF-8" standalone="no"?>
<svg width="16px" height="16px" viewBox="0 0 16 16" version="1.1" xmlns="http://www.w3.org/2000/svg" xmlns:xlink="http://www.w3.org/1999/xlink" xmlns:sketch="http://www.bohemiancoding.com/sketch/ns">
    <!-- Generator: Sketch 3.0.1 (7597) - http://www.bohemiancoding.com/sketch -->
    <title>wr-icon-employee-av</title>
    <description>Created with Sketch.</description>
    <defs>
        <rect id="path-1" x="0" y="0" width="16" height="16"></rect>
        <path id="path-3" d="M16,2.24853196 L16,5.00245535 C16,5.5536886 15.5518945,6 14.9991283,6 L1.00087166,6 C0.444630861,6 -6.43929354e-15,5.55338405 -6.43929354e-15,5.00245535 L-2.27373675e-13,2.24853196 C0.800687443,1.21594562 2.03798241,0.358221283 3.54905437,-0.216087369 C4.61616051,1.14785363 6.16923848,3 8,3 C9.83076152,3 11.3838395,1.14785363 12.4509456,-0.216087369 C13.9620176,0.358221283 15.1993126,1.21594562 16,2.24853196 Z"></path>
        <radialGradient cx="50%" cy="0%" fx="50%" fy="0%" r="87.4900351%" id="radialGradient-5">
            <stop stop-color="#4095C5" offset="0%"></stop>
            <stop stop-color="#4095C5" stop-opacity="0" offset="100%"></stop>
        </radialGradient>
        <rect id="path-6" x="0" y="0" width="4" height="2"></rect>
    </defs>
    <g id="Page-1" stroke="none" stroke-width="1" fill="none" fill-rule="evenodd" sketch:type="MSPage">
        <g id="People---Avatars" sketch:type="MSLayerGroup" transform="translate(-32.000000, 0.000000)">
            <g id="Employee-Avatar" transform="translate(32.000000, 0.000000)">
                <mask id="mask-2" sketch:name="Mask" fill="white">
                    <use xlink:href="#path-1"></use>
                </mask>
                <g id="Mask"></g>
                <g id="Employee" mask="url(#mask-2)">
                    <g transform="translate(0.000000, 1.000000)">
                        <g id="Shirt" transform="translate(0.000000, 9.000000)">
                            <mask id="mask-4" sketch:name="Shirt" fill="white">
                                <use xlink:href="#path-3"></use>
                            </mask>
                            <use fill="#EBF8FF" sketch:type="MSShapeGroup" xlink:href="#path-3"></use>
                            <g id="Plaid" mask="url(#mask-4)" sketch:type="MSShapeGroup">
                                <g transform="translate(-1.000000, -0.216087)">
                                    <path d="M9,0 L9,7 L11,7 L11,0 L9,0 L9,0 Z M12,0 L12,7 L14,7 L14,0 L12,0 L12,0 Z M15,0 L15,7 L17,7 L17,0 L15,0 L15,0 Z M6,0 L6,7 L8,7 L8,0 L6,0 L6,0 Z M3,0 L3,7 L5,7 L5,0 L3,0 L3,0 Z M0,0 L0,7 L2,7 L2,0 L0,0 L0,0 Z" id="Vertical" fill="#E9F4FA"></path>
                                    <path d="M1,5 L1,6 L17,6 L17,5 L1,5 L1,5 Z M1,3 L1,4 L17,4 L17,3 L1,3 L1,3 Z M1,1 L1,2 L17,2 L17,1 L1,1 L1,1 Z" id="Horizontal" fill="#D5EBF8"></path>
                                </g>
                            </g>
                        </g>
                        <g id="Face" transform="translate(4.000000, 0.000000)">
                            <g id="Person-Face-5" sketch:type="MSShapeGroup">
                                <path d="M4,10 C6.34033203,10 8,7.762 8,5 C8,2.238 8,0 4,0 C0,0 0,2.238 0,5 C0,7.762 1.65966797,10 4,10 Z" id="Outer-Frame" fill-opacity="0.65" fill="#D9D9D9"></path>
                                <path d="M4,1 C6.66961542,1 7,1.59783089 7,5 C7,7.31386274 5.68154504,9 4,9 C2.31845496,9 1,7.31386274 1,5 C1,1.59783089 1.33038458,1 4,1 Z" id="Inner-Fill" fill="#FCFCFC"></path>
                            </g>
                            <path d="M4,10 C6.34033203,10 8,7.762 8,5 C8,2.238 8,0 4,0 C0,0 0,2.238 0,5 C0,7.762 1.65966797,10 4,10 L4,10 Z M4,1 C6.66961542,1 7,1.59783089 7,5 C7,7.31386274 5.68154504,9 4,9 C2.31845496,9 1,7.31386274 1,5 C1,1.59783089 1.33038458,1 4,1 L4,1 Z" id="Face-Glow" fill="url(#radialGradient-5)" sketch:type="MSShapeGroup"></path>
                        </g>
                        <g id="Tag" transform="translate(10.000000, 12.000000)">
                            <rect id="Clip" fill="#D8D8D8" sketch:type="MSShapeGroup" x="1.5" y="0" width="1" height="1"></rect>
                            <rect fill="#FFFFFF" sketch:type="MSShapeGroup" x="0" y="1" width="4" height="2"></rect>
                            <g id="Stripe" transform="translate(0.000000, 1.000000)">
                                <mask id="mask-7" sketch:name="Mask" fill="white">
                                    <use xlink:href="#path-6"></use>
                                </mask>
                                <use id="Mask" sketch:type="MSShapeGroup" xlink:href="#path-6"></use>
                                <rect fill="#4095C5" sketch:type="MSShapeGroup" mask="url(#mask-7)" x="0" y="-0.5" width="4" height="1"></rect>
                            </g>
                        </g>
                    </g>
                </g>
            </g>
        </g>
    </g>
</svg>