<?xml version="1.0" encoding="UTF-8" standalone="no"?>
<svg width="16px" height="16px" viewBox="0 0 16 16" version="1.1" xmlns="http://www.w3.org/2000/svg" xmlns:xlink="http://www.w3.org/1999/xlink" xmlns:sketch="http://www.bohemiancoding.com/sketch/ns">
    <!-- Generator: Sketch 3.0.1 (7597) - http://www.bohemiancoding.com/sketch -->
    <title>wr-icon-angel-investor</title>
    <description>Created with Sketch.</description>
    <defs>
        <rect id="path-1" x="0" y="0" width="16" height="16"></rect>
        <linearGradient x1="0%" y1="69.2047119%" x2="100%" y2="87.399292%" id="linearGradient-3">
            <stop stop-color="#FFFFFF" stop-opacity="0.5" offset="0%"></stop>
            <stop stop-color="#000000" stop-opacity="0.5" offset="100%"></stop>
        </linearGradient>
        <path d="M7.96567715,-0.358902718 C7.58700185,-0.784607569 6.59068138,-1 5.00245097,-1 L4.99754903,-1 C3.40931862,-1 2.41299815,-0.784607569 2.03432285,-0.358902718 C1.79045105,-0.0835661671 1.89584288,0.165354331 1.90809774,0.192786386 C1.91422518,0.202946406 1.92035261,0.212090424 1.92648004,0.222250445 L3.84926825,2.81915164 C3.87990541,2.86080772 3.93137584,2.89230378 3.99142467,2.90449581 C4.31985503,2.96850394 4.66054026,3 5,3 C5.33945974,3 5.68014497,2.96850394 6.00857533,2.90449581 C6.06862416,2.89230378 6.12009459,2.86080772 6.15073175,2.81915164 L8.07351996,0.222250445 C8.07964739,0.212090424 8.08577482,0.202946406 8.09190226,0.192786386 C8.10415712,0.165354331 8.20954895,-0.0835661671 7.96567715,-0.358902718 M3.75,3.5 L0.223349333,10.5533013 C0.0999969024,10.8000062 0.190584244,11.1139402 0.427832316,11.2557783 L4.59017306,13.7442217 C4.82645832,13.8854841 5.20722192,13.8860598 5.44276743,13.7442217 L9.57523794,11.2557783 C9.80982755,11.1145159 9.89969656,10.7993931 9.77665067,10.5533013 C9.77665067,10.5533013 6.25000013,3.5 6.25,3.5 C5.62500013,3.69999695 4.37500013,3.69999695 3.75,3.5 Z" id="path-4"></path>
        <filter x="-50%" y="-50%" width="200%" height="200%" filterUnits="objectBoundingBox" id="filter-6">
            <feMorphology radius="1" in="SourceAlpha" operator="dilate" result="shadowSpreadOuter1"></feMorphology>
            <feOffset dx="0" dy="0" in="shadowSpreadOuter1" result="shadowOffsetOuter1"></feOffset>
            <feGaussianBlur stdDeviation="0.5" in="shadowOffsetOuter1" result="shadowBlurOuter1"></feGaussianBlur>
            <feColorMatrix values="0 0 0 0 1   0 0 0 0 0.843137255   0 0 0 0 0.0784313725  0 0 0 0.281125453 0" in="shadowBlurOuter1" type="matrix" result="shadowMatrixOuter1"></feColorMatrix>
            <feMerge>
                <feMergeNode in="shadowMatrixOuter1"></feMergeNode>
                <feMergeNode in="SourceGraphic"></feMergeNode>
            </feMerge>
        </filter>
    </defs>
    <g id="Page-1" stroke="none" stroke-width="1" fill="none" fill-rule="evenodd" sketch:type="MSPage">
        <g id="People" sketch:type="MSLayerGroup" transform="translate(-152.000000, 0.000000)">
            <g id="Angel-Investor" transform="translate(152.000000, 0.000000)">
                <mask id="mask-2" sketch:name="Mask" fill="white">
                    <use xlink:href="#path-1"></use>
                </mask>
                <g id="Mask"></g>
                <g id="Tie" mask="url(#mask-2)">
                    <g transform="translate(3.000000, 1.000000)">
                        <g>
                            <mask id="mask-5" sketch:name="Tie" fill="white">
                                <use xlink:href="#path-4"></use>
                            </mask>
                            <g>
                                <use fill="#601EBD" sketch:type="MSShapeGroup" xlink:href="#path-4"></use>
                                <use fill-opacity="0.300000012" fill="url(#linearGradient-3)" xlink:href="#path-4"></use>
                            </g>
                            <g id="Pinstripes" mask="url(#mask-5)" stroke-linecap="square" stroke="#3000C2" stroke-width="0.5" sketch:type="MSShapeGroup">
                                <g transform="translate(0.000000, -1.000000)" id="Pinstripe">
                                    <path d="M1.09471007,0.168831169 L1.09471007,15.7694805"></path>
                                    <path d="M2.09471007,0.168831169 L2.09471007,15.7694805"></path>
                                    <path d="M3.09471007,0.168831169 L3.09471007,15.7694805"></path>
                                    <path d="M4.09471007,0.168831169 L4.09471007,15.7694805"></path>
                                    <path d="M5.09471007,0.168831169 L5.09471007,15.7694805"></path>
                                    <path d="M6.09471007,0.168831169 L6.09471007,15.7694805"></path>
                                    <path d="M7.09471007,0.168831169 L7.09471007,15.7694805"></path>
                                    <path d="M8.09471007,0.168831169 L8.09471007,15.7694805"></path>
                                    <path d="M9.09471007,0.168831169 L9.09471007,15.7694805"></path>
                                </g>
                            </g>
                        </g>
                    </g>
                </g>
                <g id="Halo" mask="url(#mask-2)" stroke="#FFD714" filter="url(#filter-6)" stroke-width="0.5" sketch:type="MSShapeGroup">
                    <g transform="translate(6.000000, 9.000000)">
                        <path d="M4,1.5 C4,0.671572875 3.1045695,0 2,0 C0.8954305,0 0,0.671572875 0,1.5 C0,2.32842712 0.8954305,3 2,3 C3.1045695,3 4,2.32842712 4,1.5 Z M0.5,1.5 C0.5,0.984072875 1.1454305,0.5 2,0.5 C2.8545695,0.5 3.5,0.984072875 3.5,1.5 C3.5,2.01592712 2.8545695,2.5 2,2.5 C1.1454305,2.5 0.5,2.01592712 0.5,1.5 Z"></path>
                    </g>
                </g>
            </g>
        </g>
    </g>
</svg>