<?xml version="1.0" encoding="UTF-8" standalone="no"?>
<svg width="16px" height="16px" viewBox="0 0 16 16" version="1.1" xmlns="http://www.w3.org/2000/svg" xmlns:xlink="http://www.w3.org/1999/xlink" xmlns:sketch="http://www.bohemiancoding.com/sketch/ns">
    <!-- Generator: Sketch 3.0.1 (7597) - http://www.bohemiancoding.com/sketch -->
    <title>wr-icon-employee</title>
    <description>Created with Sketch.</description>
    <defs>
        <rect id="path-1" x="0" y="0" width="16" height="16"></rect>
        <path d="M1.50524116,0 C0.673919421,0 0,0.671655983 0,1.49710104 L0,8.50289896 C0,9.32972503 0.667129755,10 1.50524116,10 L14.4947588,10 C15.3260806,10 16,9.32834402 16,8.50289896 L16,1.49710104 C16,0.670274966 15.3328702,0 14.4947588,0 L1.50524116,0 Z M6.49047852,0.5 C6.21959471,0.5 6,0.731933594 6,1 C6,1.27614237 6.21505737,1.5 6.49047852,1.5 L9.50952148,1.5 C9.78040529,1.5 10,1.26806641 10,1 C10,0.723857625 9.78494263,0.5 9.50952148,0.5 L6.49047852,0.5 Z" id="path-3"></path>
        <rect id="path-5" x="0" y="0" width="6.5" height="7"></rect>
    </defs>
    <g id="Page-1" stroke="none" stroke-width="1" fill="none" fill-rule="evenodd" sketch:type="MSPage">
        <g id="People" sketch:type="MSLayerGroup" transform="translate(-32.000000, 0.000000)">
            <g id="Employee" transform="translate(32.000000, 0.000000)">
                <mask id="mask-2" sketch:name="Mask" fill="white">
                    <use xlink:href="#path-1"></use>
                </mask>
                <g id="Mask"></g>
                <g id="ID-Tag" mask="url(#mask-2)">
                    <g transform="translate(0.000000, 2.000000)">
                        <g id="Card" stroke-width="1" fill="none" sketch:type="MSLayerGroup" transform="translate(0.000000, 2.000000)">
                            <mask id="mask-4" sketch:name="Card" fill="white">
                                <use xlink:href="#path-3"></use>
                            </mask>
                            <use fill="#FDFDFD" sketch:type="MSShapeGroup" xlink:href="#path-3"></use>
                            <rect id="Stripe" fill="#4095C5" sketch:type="MSShapeGroup" mask="url(#mask-4)" x="0" y="0" width="16" height="3"></rect>
                            <g id="Text" mask="url(#mask-4)" sketch:type="MSShapeGroup">
                                <g transform="translate(8.000000, 4.000000)">
                                    <path d="M0,2 L0,3 L4,3 L4,2 L0,2 Z M0,3.5 L0,4.5 L5,4.5 L5,3.5 L0,3.5 Z" id="Text" fill="#D8D8D8"></path>
                                    <rect id="Title" fill="#B6B6B6" x="0" y="0" width="6" height="1"></rect>
                                </g>
                            </g>
                            <g id="Photo" mask="url(#mask-4)">
                                <g transform="translate(0.000000, 3.000000)">
                                    <mask id="mask-6" sketch:name="Photo Frame" fill="white">
                                        <use xlink:href="#path-5"></use>
                                    </mask>
                                    <use id="Photo-Frame" stroke="none" fill="#D8D8D8" fill-rule="evenodd" sketch:type="MSShapeGroup" xlink:href="#path-5"></use>
                                    <path d="M3.5,1 C4.83480771,1 5,1.29891545 5,3 C5,4.15693137 4.34077252,5 3.5,5 C2.65922748,5 2,4.15693137 2,3 C2,1.29891545 2.16519229,1 3.5,1 Z" id="Face" stroke="none" fill="#FCFCFC" fill-rule="evenodd" sketch:type="MSShapeGroup" mask="url(#mask-6)"></path>
                                    <path d="M7,5.52692472 L7,6.6743928 C7,6.90407332 6.80395384,7.0900364 6.56211865,7.0900364 L0.437881351,7.0900364 C0.194526002,7.0900364 9.66587921e-14,6.90394642 9.66587921e-14,6.6743928 L0,5.52692472 C0.350300756,5.09668041 0.891617304,4.73929527 1.55271129,4.5 C2.01957022,5.06830875 2.69904183,5.8400364 3.5,5.8400364 C4.30095817,5.8400364 4.98042978,5.06830875 5.44728871,4.5 C6.1083827,4.73929527 6.64969924,5.09668041 7,5.52692472 Z" id="Oval-15" stroke="none" fill="#D8D8D8" fill-rule="evenodd" sketch:type="MSShapeGroup" mask="url(#mask-6)"></path>
                                </g>
                            </g>
                            <rect id="Frame" stroke="#979797" stroke-width="0.5" opacity="0.3" sketch:type="MSShapeGroup" mask="url(#mask-4)" x="0" y="0" width="16" height="10" rx="1.5"></rect>
                        </g>
                        <path d="M7,0 L7,3 L9,3 L9,0 L7,0 Z M8,1.5 C8.27614237,1.5 8.5,1.27614237 8.5,1 C8.5,0.723857625 8.27614237,0.5 8,0.5 C7.72385763,0.5 7.5,0.723857625 7.5,1 C7.5,1.27614237 7.72385763,1.5 8,1.5 Z" id="Clip" fill="#D8D8D8" sketch:type="MSShapeGroup"></path>
                    </g>
                </g>
            </g>
        </g>
    </g>
</svg>