<?xml version="1.0" encoding="UTF-8" standalone="no"?>
<svg width="16px" height="16px" viewBox="0 0 16 16" version="1.1" xmlns="http://www.w3.org/2000/svg" xmlns:xlink="http://www.w3.org/1999/xlink" xmlns:sketch="http://www.bohemiancoding.com/sketch/ns">
    <!-- Generator: Sketch 3.0.1 (7597) - http://www.bohemiancoding.com/sketch -->
    <title>wr-icon-downtown</title>
    <description>Created with Sketch.</description>
    <defs>
        <rect id="path-1" x="0" y="0" width="16" height="16"></rect>
    </defs>
    <g id="Page-1" stroke="none" stroke-width="1" fill="none" fill-rule="evenodd" sketch:type="MSPage">
        <g id="Places" sketch:type="MSLayerGroup" transform="translate(-64.000000, 0.000000)">
            <g id="Downtown" transform="translate(64.000000, 0.000000)">
                <mask id="mask-2" sketch:name="Mask" fill="white">
                    <use xlink:href="#path-1"></use>
                </mask>
                <g id="Mask"></g>
                <g id="Harbour-Centre" mask="url(#mask-2)" sketch:type="MSShapeGroup">
                    <rect id="Antenna" fill="#A69D8D" x="7" y="0" width="2" height="4"></rect>
                    <rect id="Base" fill="#A69D8D" x="5" y="14" width="6" height="2"></rect>
                    <path d="M3,5 L5,7 L11,7 L13,5 L3,5 Z" id="Antenna-Lower" fill="#A69D8D" transform="translate(8.000000, 6.000000) scale(1, -1) translate(-8.000000, -6.000000) "></path>
                    <rect id="Antenna-Middle" fill="#D9D5CE" x="5" y="3" width="6" height="2"></rect>
                    <rect id="Bottom-Level" fill="#D9D5CE" x="2" y="12" width="12" height="2"></rect>
                    <path d="M1,11 L2,12 L14,12 L15,11 L1,11 Z" id="Under-Middle" fill="#595143"></path>
                    <rect id="Middle-Level" fill="#D9D5CE" x="1" y="9" width="14" height="2"></rect>
                    <path d="M0,8 L1,9 L15,9 L16,8 L0,8 Z" id="Under-Top" fill="#595143"></path>
                    <rect id="Top-Level" fill="#D9D5CE" x="0" y="6" width="16" height="2"></rect>
                    <path d="M9,14 L9,16 L11,16 L11,14 L9,14 Z M9,3 L9,5 L11,5 L11,3 L9,3 Z M10,12 L10,14 L14,14 L14,12 L10,12 Z M10.3000031,9 L10.3000031,11 L15.0000031,11 L15.0000031,9 L10.3000031,9 Z M10.6999969,6 L10.6999969,8 L15.9999969,8 L15.9999969,6 L10.6999969,6 Z" id="Shadows" fill="#BFBFBF"></path>
                </g>
            </g>
        </g>
    </g>
</svg>