<?xml version="1.0" encoding="UTF-8" standalone="no"?>
<svg width="16px" height="16px" viewBox="0 0 16 16" version="1.1" xmlns="http://www.w3.org/2000/svg" xmlns:xlink="http://www.w3.org/1999/xlink" xmlns:sketch="http://www.bohemiancoding.com/sketch/ns">
    <!-- Generator: Sketch 3.0.1 (7597) - http://www.bohemiancoding.com/sketch -->
    <title>Slice 1</title>
    <description>Created with Sketch.</description>
    <defs>
        <path d="M5,0 L5,7 L6,7 L6,0 L5,0 Z M5,8 L5,10 L9,10 L9,8 L5,8 Z M8,0 L8,7 L9,7 L9,0 L8,0 Z M6.5,0 L6.5,7 L7.5,7 L7.5,0 L6.5,0 Z M10,0 L10,10 L11,10 L11,0 L10,0 Z M13,3 L13,10 L14,10 L14,3 L13,3 Z M0,3 L0,10 L1,10 L1,3 L0,3 Z M3,0 L3,10 L4,10 L4,0 L3,0 Z" id="path-1"></path>
    </defs>
    <g id="Page-1" stroke="none" stroke-width="1" fill="none" fill-rule="evenodd" sketch:type="MSPage">
        <g id="Slices" sketch:type="MSLayerGroup"></g>
        <g id="Municipal-Government" sketch:type="MSLayerGroup">
            <g id="Building" fill="#D8D8D8" sketch:type="MSShapeGroup">
                <rect id="Rectangle-4" x="5" y="0" width="6" height="16"></rect>
                <rect id="Rectangle-9" x="14" y="8" width="2" height="8"></rect>
                <rect id="Rectangle-7" x="0" y="8" width="2" height="8"></rect>
                <rect id="Rectangle-5" x="11" y="5" width="3" height="11"></rect>
                <rect id="Rectangle-18" x="2" y="5" width="3" height="11"></rect>
            </g>
            <g id="Shadows" transform="translate(11.000000, 5.000000)" fill="#BFBFBF" sketch:type="MSShapeGroup">
                <rect id="Rectangle-6" x="0" y="0" width="1.5" height="11"></rect>
                <rect id="Rectangle-8" x="3" y="3" width="1.5" height="8"></rect>
            </g>
            <g id="Windows" transform="translate(1.000000, 6.000000)">
                <mask id="mask-2" sketch:name="Windows Light" fill="white">
                    <use xlink:href="#path-1"></use>
                </mask>
                <use id="Windows-Light" fill="#666666" sketch:type="MSShapeGroup" xlink:href="#path-1"></use>
                <path d="M6.5,0 L6.5,1 L7.5,1 L7.5,0 L6.5,0 Z M5,0 L5,1 L6,1 L6,0 L5,0 Z M8,0 L8,1 L9,1 L9,0 L8,0 Z M6.5,3 L6.5,4 L7.5,4 L7.5,3 L6.5,3 Z M8,3 L8,4 L9,4 L9,3 L8,3 Z M5,3 L5,4 L6,4 L6,3 L5,3 Z M6.5,6 L6.5,7 L7.5,7 L7.5,6 L6.5,6 Z M8,6 L8,7 L9,7 L9,6 L8,6 Z M5,6 L5,7 L6,7 L6,6 L5,6 Z M3,0 L3,1 L4,1 L4,0 L3,0 Z M3,3 L3,4 L4,4 L4,3 L3,3 Z M3,6 L3,7 L4,7 L4,6 L3,6 Z M3,9 L3,10 L4,10 L4,9 L3,9 Z M10,0 L10,1 L11,1 L11,0 L10,0 Z M10,9 L10,10 L11,10 L11,9 L10,9 Z M10,3 L10,4 L11,4 L11,3 L10,3 Z M10,6 L10,7 L11,7 L11,6 L10,6 Z M13,3 L13,4 L14,4 L14,3 L13,3 Z M13,6 L13,7 L14,7 L14,6 L13,6 Z M13,9 L13,10 L14,10 L14,9 L13,9 Z M0,3 L0,4 L1,4 L1,3 L0,3 Z M0,6 L0,7 L1,7 L1,6 L0,6 Z M0,9 L0,10 L1,10 L1,9 L0,9 Z M5,8 L5,9 L9,9 L9,8 L5,8 Z" id="Windows-Dark" fill="#000000" sketch:type="MSShapeGroup" mask="url(#mask-2)"></path>
            </g>
            <path d="M10,3 C10,1.8954305 9.1045695,1 8,1 C6.8954305,1 6,1.8954305 6,3 C6,4.1045695 6.8954305,5 8,5 C9.1045695,5 10,4.1045695 10,3 Z M7,3 C7,2.44771525 7.44771525,2 8,2 C8.55228475,2 9,2.44771525 9,3 C9,3.55228475 8.55228475,4 8,4 C7.44771525,4 7,3.55228475 7,3 Z" id="Clock" fill="#FF0000" sketch:type="MSShapeGroup"></path>
        </g>
    </g>
</svg>