<?xml version="1.0" encoding="UTF-8" standalone="no"?>
<svg width="16px" height="16px" viewBox="0 0 16 16" version="1.1" xmlns="http://www.w3.org/2000/svg" xmlns:xlink="http://www.w3.org/1999/xlink" xmlns:sketch="http://www.bohemiancoding.com/sketch/ns">
    <!-- Generator: Sketch 3.0.1 (7597) - http://www.bohemiancoding.com/sketch -->
    <title>wr-icon-gastown</title>
    <description>Created with Sketch.</description>
    <defs>
        <rect id="path-1" x="0" y="0" width="16" height="16"></rect>
    </defs>
    <g id="Page-1" stroke="none" stroke-width="1" fill="none" fill-rule="evenodd" sketch:type="MSPage">
        <g id="Places" sketch:type="MSLayerGroup" transform="translate(-32.000000, 0.000000)">
            <g id="Gastown" transform="translate(32.000000, 0.000000)">
                <mask id="mask-2" sketch:name="Mask" fill="white">
                    <use xlink:href="#path-1"></use>
                </mask>
                <g id="Mask"></g>
                <path d="M6.47858368,4.97166513 C6.65690981,4.95040313 6.83163417,4.91740908 7.00196303,4.87347673 L7.00196303,4.87347673 C7.00065756,4.91549113 7,4.95766878 7,5 C7,7.209139 8.790861,9 11,9 C11.3482287,9 11.6860643,8.95550153 12.0081307,8.87188065 C12.0027658,8.91383005 12,8.95659204 12,9 C12,9.55228475 12.4477153,10 13,10 C13.5522847,10 14,9.55228475 14,9 C14,8.62652948 13.7952667,8.30087697 13.4919107,8.12915301 L13.4919107,8.12915301 C14.411008,7.39625969 15,6.26691308 15,5 C15,4.27132511 14.8051576,3.58815809 14.4647302,2.99975628 C14.4764674,2.99991858 14.4882242,3 14.5,3 C15.8807119,3 17,1.88071187 17,0.5 C17,-0.880711875 15.8807119,-2 14.5,-2 C13.1192881,-2 12,-0.880711875 12,0.5 C12,0.72444111 12.0295761,0.941974357 12.0850434,1.14891492 C11.7399969,1.05189522 11.3760588,1 11,1 C10.6539934,1 10.3182478,1.04393235 9.99803697,1.12652327 C9.99934244,1.08450887 10,1.04233122 10,1 C10,-1.209139 8.209139,-3 6,-3 C3.790861,-3 2,-1.209139 2,1 C2,1.34672939 2.0441161,1.68315492 2.12704139,2.00396967 L2.12704139,2.00396967 C2.08503278,2.00133641 2.04267246,2 2,2 C0.8954305,2 0,2.8954305 0,4 C0,5.1045695 0.8954305,6 2,6 C2.01676035,6 2.03347255,5.99979384 2.0501342,5.99938391 C2.01725893,6.16112985 2,6.3285494 2,6.5 C2,7.88071187 3.11928813,9 4.5,9 C5.88071187,9 7,7.88071187 7,6.5 C7,5.92440404 6.80547687,5.39424139 6.47858368,4.97166513 Z" id="Steam" stroke-opacity="0.65" stroke="#FFFFFF" opacity="0.8" fill="#F0F0F0" sketch:type="MSShapeGroup" mask="url(#mask-2)"></path>
                <g id="Steam-Clock" mask="url(#mask-2)">
                    <g transform="translate(0.000000, -3.000000)">
                        <path d="M12,16.6707057 L12,16.5 L4,16.5 L4,16.6707057 L4,16.6707057 C5.16519237,17.0825421 6,18.1937812 6,19.5 C6,19.8506354 5.93984578,20.1872211 5.82929429,20.5 L10.1707057,20.5 C10.0601542,20.1872211 10,19.8506354 10,19.5 C10,18.1937812 10.8348076,17.0825421 12,16.6707057 Z M12,8 L12,9 L4,9 L4,8 L4,8 C5.86383943,8 7.42993972,6.72522721 7.87398251,5 L8.12601749,5 C8.57006028,6.72522721 10.1361606,8 12,8 L12,8 Z" id="Top-&amp;-Bottom" fill="#4C4235" sketch:type="MSShapeGroup"></path>
                        <g id="Front" stroke-width="1" fill="none" sketch:type="MSLayerGroup" transform="translate(4.000000, 8.000000)">
                            <rect id="Face-Frame" stroke="#806C53" stroke-width="0.5" fill="#F3E5CE" sketch:type="MSShapeGroup" x="0" y="0.5" width="8" height="8"></rect>
                            <rect id="Flowers" stroke="#FFAF00" stroke-width="0.5" sketch:type="MSShapeGroup" x="1.5" y="2" width="5" height="5"></rect>
                            <g id="Clock-Face" transform="translate(1.000000, 1.500000)" sketch:type="MSShapeGroup">
                                <circle fill="#F8F8F8" cx="3" cy="3" r="3"></circle>
                                <circle id="Clock-Face-2" stroke="#FFAF00" stroke-width="0.25" stroke-linecap="round" opacity="0.8" cx="3" cy="3" r="2"></circle>
                                <path d="M2.5,2.5 C2.77614237,2.5 3,2.27614237 3,2 C3,1.72385763 2.77614237,1.5 2.5,1.5 C2.22385763,1.5 2,1.72385763 2,2 C2,2.27614237 2.22385763,2.5 2.5,2.5 Z M4.5,4.5 C4.77614237,4.5 5,4.27614237 5,4 C5,3.72385763 4.77614237,3.5 4.5,3.5 C4.22385763,3.5 4,3.72385763 4,4 C4,4.27614237 4.22385763,4.5 4.5,4.5 Z" id="Hand-Ends" fill="#332A1F"></path>
                                <path d="M2.5,2 L3,3 L4.5,4" id="Hands" stroke="#332A1F" stroke-width="0.5"></path>
                            </g>
                        </g>
                        <g id="Top-Spout" stroke-width="1" fill="none" sketch:type="MSLayerGroup" transform="translate(7.500000, 3.000000)">
                            <rect fill="#332A1F" sketch:type="MSShapeGroup" x="-0.5" y="0" width="2" height="3"></rect>
                        </g>
                        <g id="Side-Spouts" stroke-width="1" fill="none" sketch:type="MSLayerGroup" transform="translate(2.000000, 5.000000)" stroke-linecap="square">
                            <g id="Line" transform="translate(-0.500000, 0.000000)" stroke="#332A1E" sketch:type="MSShapeGroup">
                                <path d="M2,0 L2,1.96"></path>
                            </g>
                            <g id="Line" transform="translate(8.500000, 0.000000)" stroke="#332A1E" sketch:type="MSShapeGroup">
                                <path d="M2,0 L2,1.96"></path>
                            </g>
                        </g>
                    </g>
                </g>
            </g>
        </g>
    </g>
</svg>